<svg width="24" height="24" viewBox="0 0 24 24" fill="none" xmlns="http://www.w3.org/2000/svg">
<rect width="24" height="24" rx="6" fill="url(#paint0_linear_1344_646)"/>
<path d="M11.9987 12C12.7943 12 13.5574 11.6839 14.12 11.1213C14.6826 10.5587 14.9987 9.79565 14.9987 9C14.9987 8.20435 14.6826 7.44129 14.12 6.87868C13.5574 6.31607 12.7943 6 11.9987 6C11.203 6 10.44 6.31607 9.87735 6.87868C9.31474 7.44129 8.99867 8.20435 8.99867 9C8.99867 9.79565 9.31474 10.5587 9.87735 11.1213C10.44 11.6839 11.203 12 11.9987 12ZM16.7337 18C17.3517 18 17.8267 17.439 17.6057 16.861C17.1721 15.7251 16.4039 14.7476 15.4025 14.058C14.4012 13.3683 13.214 12.9991 11.9982 12.9991C10.7823 12.9991 9.59516 13.3683 8.59382 14.058C7.59248 14.7476 6.82419 15.7251 6.39067 16.861C6.17067 17.439 6.64467 18 7.26267 18H16.7337Z" fill="white"/>
<defs>
<linearGradient id="paint0_linear_1344_646" x1="12" y1="0" x2="12" y2="24" gradientUnits="userSpaceOnUse">
<stop stop-color="white" stop-opacity="0.1"/>
<stop offset="1" stop-color="white" stop-opacity="0.25"/>
</linearGradient>
</defs>
</svg>
