<svg width="24" height="24" viewBox="0 0 24 24" fill="none" xmlns="http://www.w3.org/2000/svg">
<rect width="24" height="24" rx="6" fill="url(#paint0_linear_1344_707)"/>
<path d="M6.5 7C6.10218 7 5.72064 7.15804 5.43934 7.43934C5.15804 7.72064 5 8.10218 5 8.5V9H19V8.5C19 8.10218 18.842 7.72064 18.5607 7.43934C18.2794 7.15804 17.8978 7 17.5 7H6.5Z" fill="white"/>
<path fill-rule="evenodd" clip-rule="evenodd" d="M19 11H5V15.5C5 15.8978 5.15804 16.2794 5.43934 16.5607C5.72064 16.842 6.10218 17 6.5 17H17.5C17.8978 17 18.2794 16.842 18.5607 16.5607C18.842 16.2794 19 15.8978 19 15.5V11ZM7 14.25C7 14.0511 7.07902 13.8603 7.21967 13.7197C7.36032 13.579 7.55109 13.5 7.75 13.5H8.25C8.44891 13.5 8.63968 13.579 8.78033 13.7197C8.92098 13.8603 9 14.0511 9 14.25C9 14.4489 8.92098 14.6397 8.78033 14.7803C8.63968 14.921 8.44891 15 8.25 15H7.75C7.55109 15 7.36032 14.921 7.21967 14.7803C7.07902 14.6397 7 14.4489 7 14.25ZM10.75 13.5C10.5511 13.5 10.3603 13.579 10.2197 13.7197C10.079 13.8603 10 14.0511 10 14.25C10 14.4489 10.079 14.6397 10.2197 14.7803C10.3603 14.921 10.5511 15 10.75 15H13.25C13.4489 15 13.6397 14.921 13.7803 14.7803C13.921 14.6397 14 14.4489 14 14.25C14 14.0511 13.921 13.8603 13.7803 13.7197C13.6397 13.579 13.4489 13.5 13.25 13.5H10.75Z" fill="white"/>
<defs>
<linearGradient id="paint0_linear_1344_707" x1="12" y1="0" x2="12" y2="24" gradientUnits="userSpaceOnUse">
<stop stop-color="white" stop-opacity="0.1"/>
<stop offset="1" stop-color="white" stop-opacity="0.25"/>
</linearGradient>
</defs>
</svg>
