<svg width="24" height="24" viewBox="0 0 24 24" fill="none" xmlns="http://www.w3.org/2000/svg">
<rect width="24" height="24" rx="6" fill="url(#paint0_linear_1344_406)"/>
<path d="M11.25 7.68789C9.7201 7.01055 8.01688 6.82771 6.37804 7.16489C6.26995 7.18839 6.17329 7.2485 6.10441 7.33505C6.03554 7.4216 5.99866 7.52929 6.00004 7.63989V15.6339C6.00004 15.9789 6.34204 16.2219 6.67904 16.1459C7.45664 15.9717 8.26109 15.9535 9.04575 16.0926C9.83041 16.2316 10.5797 16.5251 11.25 16.9559V7.68789ZM12.75 16.9559C13.4204 16.5251 14.1697 16.2316 14.9543 16.0926C15.739 15.9535 16.5434 15.9717 17.321 16.1459C17.658 16.2209 18 15.9789 18 15.6339V7.63989C18.0014 7.52929 17.9645 7.4216 17.8957 7.33505C17.8268 7.2485 17.7301 7.18839 17.622 7.16489C15.9832 6.82765 14.28 7.01049 12.75 7.68789V16.9559Z" fill="white"/>
<defs>
<linearGradient id="paint0_linear_1344_406" x1="12" y1="0" x2="12" y2="24" gradientUnits="userSpaceOnUse">
<stop stop-color="white" stop-opacity="0.1"/>
<stop offset="1" stop-color="white" stop-opacity="0.25"/>
</linearGradient>
</defs>
</svg>
