<svg width="24" height="24" viewBox="0 0 24 24" fill="none" xmlns="http://www.w3.org/2000/svg">
<rect width="24" height="24" rx="6" fill="url(#paint0_linear_1344_467)"/>
<path d="M12.5 8.5C12.5 9.16304 12.2366 9.79893 11.7677 10.2678C11.2989 10.7366 10.663 11 9.99995 11C9.33691 11 8.70102 10.7366 8.23218 10.2678C7.76334 9.79893 7.49995 9.16304 7.49995 8.5C7.49995 7.83696 7.76334 7.20107 8.23218 6.73223C8.70102 6.26339 9.33691 6 9.99995 6C10.663 6 11.2989 6.26339 11.7677 6.73223C12.2366 7.20107 12.5 7.83696 12.5 8.5ZM14.9 16.006C15.0099 16.548 14.552 17 14 17H5.99995C5.44695 17 4.98995 16.548 5.09795 16.006C5.328 14.8758 5.94159 13.8597 6.83482 13.13C7.72805 12.4003 8.84603 12.0016 9.99945 12.0016C11.1529 12.0016 12.2708 12.4003 13.1641 13.13C14.0573 13.8597 14.6709 14.8758 14.901 16.006H14.9ZM18.002 16H16.412C16.4042 15.9026 16.3908 15.8058 16.372 15.71C16.1813 14.7664 15.7826 13.8771 15.205 13.107C15.94 12.9047 16.7244 12.9896 17.3991 13.3445C18.0738 13.6994 18.5882 14.2977 18.838 15.018C19.018 15.54 18.555 16 18.002 16ZM16 12C16.5304 12 17.0391 11.7893 17.4142 11.4142C17.7892 11.0391 18 10.5304 18 10C18 9.46957 17.7892 8.96086 17.4142 8.58579C17.0391 8.21071 16.5304 8 16 8C15.4695 8 14.9608 8.21071 14.5857 8.58579C14.2107 8.96086 14 9.46957 14 10C14 10.5304 14.2107 11.0391 14.5857 11.4142C14.9608 11.7893 15.4695 12 16 12Z" fill="white"/>
<defs>
<linearGradient id="paint0_linear_1344_467" x1="12" y1="0" x2="12" y2="24" gradientUnits="userSpaceOnUse">
<stop stop-color="white" stop-opacity="0.1"/>
<stop offset="1" stop-color="white" stop-opacity="0.25"/>
</linearGradient>
</defs>
</svg>
