<svg width="16" height="16" viewBox="0 0 16 16" fill="none" xmlns="http://www.w3.org/2000/svg">
<path fill-rule="evenodd" clip-rule="evenodd" d="M8.07405 0.943166C7.43153 1.40615 6.90837 2.01533 6.54775 2.7204C6.18712 3.42548 5.99939 4.20622 6.00005 4.99817V5.03017C6.00405 5.63017 6.11405 6.20617 6.31105 6.73917C6.47105 7.16717 6.10705 7.64917 5.70105 7.43917C4.94648 7.04728 4.30374 6.47026 3.83305 5.76217C3.63105 5.45817 3.18505 5.39917 2.98505 5.70417C2.32554 6.70824 1.98262 7.88717 2.00068 9.08833C2.01874 10.2895 2.39694 11.4576 3.08634 12.4414C3.77573 13.4252 4.74457 14.1794 5.86742 14.6064C6.99028 15.0333 8.21545 15.1134 9.38434 14.8363C10.5532 14.5591 11.612 13.9374 12.4236 13.0517C13.2352 12.1661 13.7623 11.0572 13.9365 9.86857C14.1108 8.67998 13.9243 7.46644 13.4011 6.38505C12.8779 5.30367 12.0422 4.40422 11.002 3.80317L10.998 3.79617C9.99408 3.21788 9.22317 2.30763 8.81805 1.22217C8.70205 0.912166 8.34105 0.751166 8.07405 0.943166ZM8.85405 7.12117C9.32568 7.26103 9.7557 7.5147 10.1062 7.85983C10.4568 8.20496 10.7171 8.63098 10.8643 9.10038C11.0115 9.56978 11.0411 10.0682 10.9503 10.5517C10.8596 11.0352 10.6515 11.489 10.3441 11.8731C10.0368 12.2572 9.63978 12.5599 9.18797 12.7545C8.73616 12.9491 8.24344 13.0297 7.75318 12.9891C7.26292 12.9485 6.79016 12.788 6.37651 12.5217C5.96286 12.2555 5.62101 11.8916 5.38105 11.4622C5.17605 11.0972 5.59605 10.7682 6.00105 10.8722C6.61425 11.03 7.25611 11.0403 7.87405 10.9022C8.16205 10.8372 8.28705 10.5162 8.19505 10.2362C8.06525 9.836 7.99944 9.41785 8.00005 8.99717C8.00005 8.41217 8.12605 7.85717 8.35105 7.35617C8.39194 7.2625 8.46559 7.18696 8.55818 7.1437C8.65078 7.10044 8.75597 7.09243 8.85405 7.12117Z" fill="#F8FAF5"/>
</svg>
