<svg width="24" height="24" viewBox="0 0 24 24" fill="none" xmlns="http://www.w3.org/2000/svg">
<rect width="24" height="24" rx="6" fill="url(#paint0_linear_1344_768)"/>
<path fill-rule="evenodd" clip-rule="evenodd" d="M19 12C19 13.8565 18.2625 15.637 16.9497 16.9497C15.637 18.2625 13.8565 19 12 19C10.1435 19 8.36301 18.2625 7.05025 16.9497C5.7375 15.637 5 13.8565 5 12C5 10.1435 5.7375 8.36301 7.05025 7.05025C8.36301 5.7375 10.1435 5 12 5C13.8565 5 15.637 5.7375 16.9497 7.05025C18.2625 8.36301 19 10.1435 19 12ZM13 9C13 9.26522 12.8946 9.51957 12.7071 9.70711C12.5196 9.89464 12.2652 10 12 10C11.7348 10 11.4804 9.89464 11.2929 9.70711C11.1054 9.51957 11 9.26522 11 9C11 8.73478 11.1054 8.48043 11.2929 8.29289C11.4804 8.10536 11.7348 8 12 8C12.2652 8 12.5196 8.10536 12.7071 8.29289C12.8946 8.48043 13 8.73478 13 9ZM10.75 12C10.5511 12 10.3603 12.079 10.2197 12.2197C10.079 12.3603 10 12.5511 10 12.75C10 12.9489 10.079 13.1397 10.2197 13.2803C10.3603 13.421 10.5511 13.5 10.75 13.5H11.5V15.25C11.5 15.4489 11.579 15.6397 11.7197 15.7803C11.8603 15.921 12.0511 16 12.25 16C12.4489 16 12.6397 15.921 12.7803 15.7803C12.921 15.6397 13 15.4489 13 15.25V12.75C13 12.5511 12.921 12.3603 12.7803 12.2197C12.6397 12.079 12.4489 12 12.25 12H10.75Z" fill="white"/>
<defs>
<linearGradient id="paint0_linear_1344_768" x1="12" y1="0" x2="12" y2="24" gradientUnits="userSpaceOnUse">
<stop stop-color="white" stop-opacity="0.1"/>
<stop offset="1" stop-color="white" stop-opacity="0.25"/>
</linearGradient>
</defs>
</svg>
