<svg width="24" height="24" viewBox="0 0 24 24" fill="none" xmlns="http://www.w3.org/2000/svg">
<rect width="24" height="24" rx="6" fill="url(#paint0_linear_1344_528)"/>
<path d="M15.25 6C15.9793 6 16.6788 6.28973 17.1945 6.80546C17.7103 7.32118 18 8.02065 18 8.75V15.25C18 15.9793 17.7103 16.6788 17.1945 17.1945C16.6788 17.7103 15.9793 18 15.25 18H12.25C11.5207 18 10.8212 17.7103 10.3055 17.1945C9.78973 16.6788 9.5 15.9793 9.5 15.25V14.75C9.5 14.5511 9.57902 14.3603 9.71967 14.2197C9.86032 14.079 10.0511 14 10.25 14C10.4489 14 10.6397 14.079 10.7803 14.2197C10.921 14.3603 11 14.5511 11 14.75V15.25C11 15.94 11.56 16.5 12.25 16.5H15.25C15.94 16.5 16.5 15.94 16.5 15.25V8.75C16.5 8.06 15.94 7.5 15.25 7.5H12.25C11.56 7.5 11 8.06 11 8.75V9.25C11 9.44891 10.921 9.63968 10.7803 9.78033C10.6397 9.92098 10.4489 10 10.25 10C10.0511 10 9.86032 9.92098 9.71967 9.78033C9.57902 9.63968 9.5 9.44891 9.5 9.25V8.75C9.5 8.02065 9.78973 7.32118 10.3055 6.80546C10.8212 6.28973 11.5207 6 12.25 6H15.25Z" fill="white"/>
<path d="M11.97 10.2808C11.8375 10.1386 11.7654 9.9506 11.7688 9.7563C11.7723 9.562 11.851 9.37661 11.9884 9.2392C12.1258 9.10179 12.3112 9.02308 12.5055 9.01965C12.6998 9.01622 12.8878 9.08834 13.03 9.22082L15.28 11.4708C15.4205 11.6114 15.4993 11.8021 15.4993 12.0008C15.4993 12.1996 15.4205 12.3902 15.28 12.5308L13.03 14.7808C12.9613 14.8545 12.8785 14.9136 12.7865 14.9546C12.6945 14.9956 12.5952 15.0176 12.4945 15.0194C12.3938 15.0212 12.2938 15.0027 12.2004 14.9649C12.107 14.9272 12.0222 14.8711 11.951 14.7999C11.8797 14.7286 11.8236 14.6438 11.7859 14.5504C11.7482 14.457 11.7296 14.357 11.7314 14.2563C11.7332 14.1556 11.7552 14.0563 11.7962 13.9643C11.8372 13.8723 11.8963 13.7895 11.97 13.7208L12.94 12.7508H5.75C5.55109 12.7508 5.36032 12.6718 5.21967 12.5312C5.07902 12.3905 5 12.1997 5 12.0008C5 11.8019 5.07902 11.6111 5.21967 11.4705C5.36032 11.3298 5.55109 11.2508 5.75 11.2508H12.94L11.97 10.2808Z" fill="white"/>
<defs>
<linearGradient id="paint0_linear_1344_528" x1="12" y1="0" x2="12" y2="24" gradientUnits="userSpaceOnUse">
<stop stop-color="white" stop-opacity="0.1"/>
<stop offset="1" stop-color="white" stop-opacity="0.25"/>
</linearGradient>
</defs>
</svg>
