<svg width="80" height="26" viewBox="0 0 80 26" fill="none" xmlns="http://www.w3.org/2000/svg">
<path d="M8.36562 3.98772C8.36562 2.33765 9.70327 1 11.3533 1C13.0034 1 14.3411 2.33765 14.3411 3.98772V21.9141C14.3411 23.5641 13.0034 24.9018 11.3533 24.9018C9.70327 24.9018 8.36562 23.5641 8.36562 21.9141V3.98772Z" fill="url(#paint0_linear_1190_7700)"/>
<path d="M16.7312 6.3779C16.7312 4.72783 18.0689 3.39018 19.719 3.39018C21.369 3.39018 22.7067 4.72783 22.7067 6.3779V12.3533C22.7067 14.0034 21.369 15.3411 19.719 15.3411C18.0689 15.3411 16.7312 14.0034 16.7312 12.3533V6.3779Z" fill="url(#paint1_linear_1190_7700)"/>
<path d="M0 13.5484C0 11.8984 1.33765 10.5607 2.98772 10.5607C4.6378 10.5607 5.97544 11.8984 5.97544 13.5484V19.5239C5.97544 21.174 4.6378 22.5116 2.98772 22.5116C1.33765 22.5116 0 21.174 0 19.5239V13.5484Z" fill="url(#paint2_linear_1190_7700)"/>
<path d="M38.1711 21.0058C36.6892 21.0058 35.5818 20.6313 34.8488 19.8824C34.1317 19.1175 33.7732 17.9384 33.7732 16.3449V11.1105H32.3869V8.67247H32.4586C33.4466 8.54499 34.1477 8.21834 34.562 7.6925C34.9763 7.15072 35.2312 6.33806 35.3268 5.25452V5.20671H37.5975V8.09883H40.4896V11.2061H37.5975V15.9864C37.5975 16.5919 37.7409 17.0222 38.0277 17.2771C38.3305 17.5321 38.697 17.6595 39.1272 17.6595C39.3503 17.6595 39.5813 17.6277 39.8204 17.5639C40.0594 17.5002 40.2825 17.4126 40.4896 17.301V20.6712C39.9956 20.8146 39.5574 20.9022 39.175 20.9341C38.7926 20.9819 38.458 21.0058 38.1711 21.0058Z" fill="url(#paint3_linear_1190_7700)"/>
<path d="M47.5302 21.0536C46.3351 21.0536 45.3312 20.8863 44.5186 20.5517C43.7218 20.2011 43.0765 19.731 42.5825 19.1414C42.0885 18.5359 41.73 17.8508 41.5069 17.0859C41.2998 16.321 41.1962 15.5163 41.1962 14.6718C41.1962 13.7635 41.3078 12.8951 41.5308 12.0665C41.7699 11.2379 42.1284 10.5049 42.6064 9.86756C43.1004 9.21424 43.7298 8.70434 44.4947 8.33785C45.2754 7.95542 46.2076 7.7642 47.2912 7.7642C48.3747 7.7642 49.2989 7.95542 50.0638 8.33785C50.8446 8.70434 51.466 9.22221 51.9281 9.89146C52.3902 10.5607 52.685 11.3335 52.8125 12.2099C52.9559 13.0863 52.9399 14.0344 52.7647 15.0542L43.6103 15.1977V13.0943L49.8008 12.9748L49.2989 14.1938C49.3945 13.4608 49.3786 12.8473 49.2511 12.3533C49.1396 11.8434 48.9244 11.461 48.6058 11.2061C48.2871 10.9352 47.8489 10.7997 47.2912 10.7997C46.7016 10.7997 46.2315 10.9511 45.881 11.2539C45.5304 11.5566 45.2834 11.9868 45.14 12.5446C44.9966 13.0863 44.9249 13.7317 44.9249 14.4806C44.9249 15.7713 45.14 16.7114 45.5702 17.301C46.0005 17.8906 46.6618 18.1854 47.5541 18.1854C47.9365 18.1854 48.2552 18.1376 48.5102 18.042C48.7651 17.9464 48.9723 17.8109 49.1316 17.6356C49.2909 17.4444 49.4025 17.2213 49.4662 16.9664C49.53 16.6955 49.5539 16.3927 49.5379 16.0581L53.0754 16.2493C53.1232 16.7752 53.0674 17.3169 52.9081 17.8747C52.7647 18.4324 52.4858 18.9502 52.0715 19.4283C51.6572 19.9063 51.0756 20.2967 50.3267 20.5995C49.5937 20.9022 48.6615 21.0536 47.5302 21.0536Z" fill="url(#paint4_linear_1190_7700)"/>
<path d="M54.4154 20.719V8.09883H57.6899V13.2377H57.8811C57.9767 11.9948 58.1839 10.975 58.5026 10.1783C58.8213 9.36562 59.2754 8.76011 59.865 8.36175C60.4546 7.96338 61.2035 7.7642 62.1118 7.7642C63.4821 7.7642 64.5099 8.21834 65.1951 9.1266C65.8962 10.0349 66.2468 11.3893 66.2468 13.1899V20.719H62.3747V13.6918C62.3747 12.8314 62.2392 12.186 61.9683 11.7558C61.7134 11.3256 61.2991 11.1105 60.7255 11.1105C60.2474 11.1105 59.8251 11.2778 59.4587 11.6124C59.0922 11.947 58.8053 12.4888 58.5982 13.2377C58.391 13.9866 58.2875 14.9905 58.2875 16.2493V20.719H54.4154Z" fill="url(#paint5_linear_1190_7700)"/>
<path d="M72.4231 21.0536C71.5149 21.0536 70.6942 20.8066 69.9613 20.3126C69.2442 19.8187 68.6706 19.0697 68.2403 18.0659C67.826 17.062 67.6189 15.7952 67.6189 14.2655C67.6189 12.8154 67.8101 11.6124 68.1925 10.6563C68.5749 9.68431 69.1167 8.95929 69.8178 8.48126C70.519 8.00322 71.3396 7.7642 72.2797 7.7642C73.0127 7.7642 73.6581 7.91558 74.2158 8.21834C74.7894 8.52109 75.2595 8.99913 75.626 9.65244C75.9925 10.3058 76.2474 11.1583 76.3908 12.2099H76.6059C76.5263 11.6682 76.4466 11.1344 76.3669 10.6085C76.2873 10.0827 76.2235 9.57277 76.1757 9.0788C76.1438 8.58483 76.1279 8.12273 76.1279 7.6925V3.98772H80V20.719H76.6299V16.823H76.4625C76.2873 17.7472 76.0164 18.528 75.6499 19.1653C75.2993 19.7868 74.8531 20.2569 74.3114 20.5756C73.7855 20.8942 73.1561 21.0536 72.4231 21.0536ZM73.7855 17.9703C74.0883 17.9703 74.3831 17.9065 74.6699 17.779C74.9567 17.6356 75.2117 17.4205 75.4348 17.1337C75.6578 16.8469 75.8331 16.4884 75.9606 16.0581C76.104 15.6279 76.1757 15.118 76.1757 14.5284V14.3611C76.1757 13.8831 76.1279 13.4608 76.0323 13.0943C75.9367 12.7119 75.8092 12.3932 75.6499 12.1382C75.4905 11.8673 75.3073 11.6522 75.1001 11.4929C74.893 11.3176 74.6699 11.1901 74.4309 11.1105C74.2078 11.0308 73.9847 10.9909 73.7616 10.9909C73.2677 10.9909 72.8534 11.1583 72.5187 11.4929C72.1841 11.8275 71.9371 12.2657 71.7778 12.8075C71.6184 13.3333 71.5388 13.907 71.5388 14.5284C71.5388 15.1499 71.6264 15.7235 71.8017 16.2493C71.977 16.7752 72.2319 17.1974 72.5665 17.5161C72.9012 17.8189 73.3075 17.9703 73.7855 17.9703Z" fill="url(#paint6_linear_1190_7700)"/>
<defs>
<linearGradient id="paint0_linear_1190_7700" x1="0" y1="12.9509" x2="80" y2="12.9509" gradientUnits="userSpaceOnUse">
<stop stop-color="white" stop-opacity="0.8"/>
<stop offset="1" stop-color="white"/>
</linearGradient>
<linearGradient id="paint1_linear_1190_7700" x1="0" y1="12.9509" x2="80" y2="12.9509" gradientUnits="userSpaceOnUse">
<stop stop-color="white" stop-opacity="0.8"/>
<stop offset="1" stop-color="white"/>
</linearGradient>
<linearGradient id="paint2_linear_1190_7700" x1="0" y1="12.9509" x2="80" y2="12.9509" gradientUnits="userSpaceOnUse">
<stop stop-color="white" stop-opacity="0.8"/>
<stop offset="1" stop-color="white"/>
</linearGradient>
<linearGradient id="paint3_linear_1190_7700" x1="0" y1="12.9509" x2="80" y2="12.9509" gradientUnits="userSpaceOnUse">
<stop stop-color="white" stop-opacity="0.8"/>
<stop offset="1" stop-color="white"/>
</linearGradient>
<linearGradient id="paint4_linear_1190_7700" x1="0" y1="12.9509" x2="80" y2="12.9509" gradientUnits="userSpaceOnUse">
<stop stop-color="white" stop-opacity="0.8"/>
<stop offset="1" stop-color="white"/>
</linearGradient>
<linearGradient id="paint5_linear_1190_7700" x1="0" y1="12.9509" x2="80" y2="12.9509" gradientUnits="userSpaceOnUse">
<stop stop-color="white" stop-opacity="0.8"/>
<stop offset="1" stop-color="white"/>
</linearGradient>
<linearGradient id="paint6_linear_1190_7700" x1="0" y1="12.9509" x2="80" y2="12.9509" gradientUnits="userSpaceOnUse">
<stop stop-color="white" stop-opacity="0.8"/>
<stop offset="1" stop-color="white"/>
</linearGradient>
</defs>
</svg>
