<svg width="24" height="24" viewBox="0 0 24 24" fill="none" xmlns="http://www.w3.org/2000/svg">
<rect width="24" height="24" rx="6" fill="url(#paint0_linear_1344_345)"/>
<path fill-rule="evenodd" clip-rule="evenodd" d="M5 12C5 8.57 8.262 6 12 6C15.738 6 19 8.57 19 12C19 15.43 15.738 18 12 18C11.577 18 11.162 17.968 10.759 17.906C9.859 18.48 8.818 18.854 7.699 18.966C7.55984 18.9799 7.41957 18.9547 7.29401 18.8931C7.16846 18.8315 7.06263 18.736 6.98847 18.6174C6.91431 18.4989 6.87478 18.3619 6.87435 18.2221C6.87391 18.0822 6.91258 17.945 6.986 17.826C7.218 17.448 7.381 17.022 7.455 16.566C5.979 15.486 5 13.86 5 12Z" fill="white"/>
<defs>
<linearGradient id="paint0_linear_1344_345" x1="12" y1="0" x2="12" y2="24" gradientUnits="userSpaceOnUse">
<stop stop-color="white" stop-opacity="0.1"/>
<stop offset="1" stop-color="white" stop-opacity="0.25"/>
</linearGradient>
</defs>
</svg>
